<svg xmlns="http://www.w3.org/2000/svg" width="100%" height="100%" viewBox="0 0 32 32">
  
    <circle cx="16" cy="16" r="16" fill="#d93639"/>
  
  <path d="M12.643 6.69c2.723-1.535 7.835-.523 8.019 3.181.162 3.263-3.89 5.465-6.326 6.796l-.637-.628c2.186-1.644 4.63-4.58 3.55-7.495-.744-2.009-4.09-1.967-4.967-.092.837-.289 2.03-.332 2.673.39.673.756.275 1.938-.565 2.368-1.31.672-3.614.099-3.722-1.6-.034-1.28.864-2.37 1.975-2.92M21.146 24.316c-2.62 1.962-7.69 2.344-10.404.428-1.138-.804-2.11-1.755-2.074-3.06.098-3.473 6.09-1.998 4.652.612-.592.916-2.021.914-2.95.572 1.609 2.267 5.961 2.212 7.799.226.922-.998 1.032-2.322.916-3.626-.137-1.566-.915-2.55-1.894-3.693.605-.42.962-.653 1.54-1.108 4.243.996 6.584 6.531 2.415 9.65M22.344 12.667c-1.346 0-1.35-2 0-2 1.32 0 1.318 2 0 2M22.344 9.333c-1.346 0-1.35-2 0-2 1.32 0 1.318 2 0 2z" fill="#fff"/>
</svg>