<svg xmlns="http://www.w3.org/2000/svg" width="100%" height="100%" viewBox="0 0 32 32">
  
    <circle cx="16" cy="16" r="16" fill="#00bce0"/>
  
  <path d="M23.078 19.143a7.505 7.505 0 0 1-2.2 5.351 7.348 7.348 0 0 1-5.388 2.17c-3.412 0-6.872-1.73-7.49-5.56h5.432c.423.645 1.12 1.026 1.978 1.026 1.66 0 2.556-1.539 2.556-2.987 0-1.432-.79-2.878-2.556-2.878-1.058 0-1.642.314-2.313 1.245l-.16.22h-4.76l2.447-12.397h12.71l-.88 4.52h-8.012s-.379 1.77-.554 2.78c.797-.426 1.705-.63 2.774-.63 3.777 0 6.416 2.936 6.416 7.14z" fill="#fff"/>
</svg>