<svg xmlns="http://www.w3.org/2000/svg" viewBox="0 0 64 64"><path d="M63.994 32.676c-2.149-3.291-6.165-9.453-6.805-10.413l3.25-4.946.003.005A31.863 31.863 0 0164 32m-.12 2.79C62.466 51.157 48.733 64 32 64 14.327 64 0 49.673 0 32S14.327 0 32 0c9.768 0 18.514 4.377 24.384 11.276l-.001.017a286.82 286.82 0 01-3.2 4.891c-1.28-1.965-3.749-5.714-3.749-5.714h-8s6.903 10.469 7.772 11.794a6666.244 6666.244 0 00-8.229 12.526h8.046s2.788-4.297 4.16-6.4c1.371 2.103 4.16 6.4 4.16 6.4h6.537"/><path d="M37.897 53.44H26.606V22.811h-4.8L28.48 10.47h9.417V53.44zM57.19 22.263c.64.96 4.656 7.122 6.805 10.413a32.649 32.649 0 01-.114 2.114h-6.537s-2.789-4.297-4.16-6.4c-1.372 2.103-4.16 6.4-4.16 6.4h-8.046s7.314-11.154 8.229-12.526c-.869-1.325-7.772-11.794-7.772-11.794h8s2.469 3.749 3.749 5.714a286.82 286.82 0 003.2-4.891v-.017a32.011 32.011 0 014.057 6.041" fill="#fff"/></svg>