<svg xmlns="http://www.w3.org/2000/svg" width="100%" height="100%" viewBox="0 0 32 32">
  
    <circle cx="16" cy="16" r="16" fill="#003c73"/>
  
  <path d="M13.771 22.433s1.636-1.132 1.836-3.367l-.936-.157.03-.003a2.216 2.216 0 0 1-1.77-2.178c0-1.227.986-2.221 2.202-2.221 1.215 0 2.2.994 2.2 2.221l-.002.021c.111 1.232-.133 3.797-3.56 5.684zM24 17.95l-3.149.007.008-12.62-3.64-.003c-.483 0-1.112.319-1.4.708L7.197 17.706c-.289.39-.528 1.106-.53 1.592v3.34l8.064-.007c.473.017.479.417.479.417l.007 3.619 5.64-.007-.01-4.023h3.15L24 17.95z" fill="#fff"/>
</svg>